<svg xmlns="http://www.w3.org/2000/svg" viewBox="0 0 162 180.84"><defs><style>.cls-1{fill:#fff;}</style></defs><g id="Capa_2" data-name="Capa 2"><g id="Capa_1-2" data-name="Capa 1"><path class="cls-1" d="M2,30,66,141a24.13,24.13,0,0,0,26.64,0L162,23a32.91,32.91,0,0,0-23.09,0L80,128,19,23A95.72,95.72,0,0,0,9,22c-3.23-.15-6.24-.13-9,0Z"/><path class="cls-1" d="M39,35,76,0h7.12L120,37c.94,4.55-.92,8.67-4,10a7,7,0,0,1-5,0L79.5,20.91,49.39,47c-.83.49-3.68,2-6.39,1C39.38,46.65,37,41.12,39,35Z"/><polygon class="cls-1" points="61 73 83.99 73 84 63 96 52 99.99 52 99.99 86.33 65.82 87.59 58 77 61 73"/><path class="cls-1" d="M62,180.84c-4.28-1.26-9-2.85-11.12-6.78a15.29,15.29,0,0,1-1.44-5.34,68.63,68.63,0,0,1,.41-20l5.75,3.69,6.4,4.1v10.91h9.9v-8h3.46l3.92,2.69,5.16-2.69v10H96.5v-13l8.68-7.79h3.89v22.49a12.58,12.58,0,0,1-10.38,9.61Z"/><path class="cls-1" d="M22.58,87.59v67.64L37.5,168.5l.78-57.81a68.53,68.53,0,0,0-5-9.87A68.62,68.62,0,0,0,22.58,87.59Z"/><path class="cls-1" d="M136.5,87.59v67.64L121.58,168.5l-.78-57.81a68.24,68.24,0,0,1,15.7-23.1Z"/></g></g></svg>